<?xml version="1.0" standalone="no"?>
<!DOCTYPE svg PUBLIC "-//W3C//DTD SVG 20010904//EN"
 "http://www.w3.org/TR/2001/REC-SVG-20010904/DTD/svg10.dtd">
<svg version="1.0" xmlns="http://www.w3.org/2000/svg"
 width="1000.000000pt" height="1000.000000pt" viewBox="0 0 1000.000000 1000.000000"
 preserveAspectRatio="xMidYMid meet">
<metadata>
Created by potrace 1.14, written by Peter Selinger 2001-2017
</metadata>
<g transform="translate(0.000000,1000.000000) scale(0.100000,-0.100000)"
fill="#000000" stroke="none">
<path d="M8045 8708 c-16 -5 -39 -14 -50 -19 -11 -5 -186 -69 -390 -143 -203
-74 -464 -169 -580 -211 -204 -75 -362 -132 -495 -180 -36 -13 -110 -40 -165
-60 -55 -20 -112 -41 -127 -47 -16 -5 -28 -11 -28 -13 0 -1 52 -146 116 -321
64 -176 128 -350 142 -389 188 -522 421 -1157 425 -1161 2 -2 67 19 143 47 76
28 147 52 157 54 9 2 21 6 26 10 5 3 51 20 103 39 223 81 425 155 448 164 14
6 72 27 130 47 58 20 114 40 125 45 11 5 126 47 255 94 129 47 267 97 305 111
39 15 75 28 80 29 6 2 23 8 38 14 16 7 31 12 35 12 36 1 26 33 -219 706 -138
379 -268 736 -289 794 -32 88 -90 249 -132 363 -11 30 -10 30 -53 15z m-10
-135 c12 -30 166 -452 205 -563 91 -253 132 -366 140 -385 11 -24 260 -713
260 -719 0 -2 -12 -8 -27 -14 -49 -19 -225 -83 -338 -124 -109 -39 -269 -97
-395 -143 -36 -13 -108 -39 -160 -58 -52 -19 -245 -89 -429 -156 -183 -67
-336 -120 -338 -117 -2 2 -45 116 -94 253 -50 136 -94 257 -99 268 -9 18 -73
197 -105 290 -14 41 -61 168 -72 195 -3 8 -7 20 -8 25 -2 6 -16 46 -33 90 -30
80 -69 186 -103 280 -9 28 -34 95 -54 150 -50 132 -50 133 5 152 25 8 72 25
105 38 66 25 114 43 384 140 101 36 218 79 260 94 42 16 191 70 331 121 140
50 264 95 275 100 11 4 67 25 125 45 58 20 114 41 125 45 29 12 32 12 40 -7z"/>
<path d="M1520 7440 l0 -1000 1000 0 1000 0 0 1000 0 1000 -1000 0 -1000 0 0
-1000z"/>
<path d="M4000 7440 l0 -1000 1000 0 1000 0 0 1000 0 1000 -1000 0 -1000 0 0
-1000z"/>
<path d="M1520 5000 l0 -1000 1000 0 1000 0 0 1000 0 1000 -1000 0 -1000 0 0
-1000z"/>
<path d="M4000 5000 l0 -1000 1000 0 1000 0 0 1000 0 1000 -1000 0 -1000 0 0
-1000z"/>
<path d="M6490 5000 l0 -1000 1000 0 1000 0 0 1000 0 1000 -1000 0 -1000 0 0
-1000z"/>
<path d="M1520 2560 l0 -1000 1000 0 1000 0 0 1000 0 1000 -1000 0 -1000 0 0
-1000z"/>
<path d="M4000 2560 l0 -1000 1000 0 1000 0 0 1000 0 1000 -1000 0 -1000 0 0
-1000z"/>
<path d="M6490 2560 l0 -1000 1000 0 1000 0 0 1000 0 1000 -1000 0 -1000 0 0
-1000z"/>
</g>
</svg>
